<svg width="690" height="179" viewBox="0 0 690 179" fill="none" xmlns="http://www.w3.org/2000/svg">
<path d="M18.1913 41.8815C16.237 40.4885 14.7368 38.9494 13.6907 37.2642C12.6567 35.5878 12.1581 33.8323 12.1946 31.9979C12.2521 30.16 12.9382 28.3188 14.2529 26.4744C14.3922 26.279 14.5185 26.1019 14.6317 25.9431C14.7536 25.7721 14.8842 25.5889 15.0235 25.3935L20.7215 29.4551C20.5909 29.6383 20.4734 29.8032 20.3689 29.9498C20.2731 30.0841 20.16 30.2429 20.0294 30.4262C19.1326 31.6842 18.799 32.9017 19.0285 34.0785C19.2581 35.2553 20.0691 36.3399 21.4616 37.3325C22.8663 38.3337 24.104 38.8844 25.1747 38.9845C26.2541 39.0724 27.1595 38.6033 27.8909 37.5773C28.4046 36.8566 28.5703 36.0169 28.388 35.058C28.2179 34.1079 27.7967 33.0708 27.1243 31.9467C26.4728 30.8192 25.659 29.622 24.683 28.3553C23.632 26.9614 22.7744 25.5027 22.1103 23.9793C21.4462 22.456 21.143 20.9044 21.2007 19.3245C21.2707 17.7534 21.8673 16.1799 22.9904 14.6043C24.1223 13.0164 25.5058 11.9671 27.1409 11.4563C28.7847 10.9333 30.5423 10.8967 32.4138 11.3465C34.2939 11.7841 36.1501 12.6559 37.9823 13.9619C39.8999 15.3288 41.3783 16.834 42.4174 18.4773C43.4775 20.1171 44.0005 21.8254 43.9866 23.6023C43.9935 25.3756 43.3701 27.1417 42.1164 28.9006C41.9771 29.0961 41.8465 29.2793 41.7246 29.4503C41.6114 29.6091 41.4808 29.7923 41.3328 29.9999L35.653 25.9513C35.7488 25.817 35.8489 25.6765 35.9534 25.5299C36.0579 25.3834 36.158 25.2429 36.2538 25.1085C37.0983 23.9237 37.4172 22.7787 37.2103 21.6734C37.0157 20.5767 36.2222 19.5322 34.8297 18.5396C33.4861 17.5819 32.2677 17.0818 31.1743 17.0392C30.0932 17.0054 29.1913 17.4954 28.4686 18.5092C27.9462 19.2421 27.7648 20.0522 27.9243 20.9396C28.0961 21.8357 28.5025 22.8161 29.1435 23.8809C29.7844 24.9457 30.5537 26.1019 31.4512 27.3495C32.663 29.0607 33.6236 30.6849 34.3331 32.2222C35.0634 33.7559 35.3927 35.2709 35.321 36.7671C35.2579 38.251 34.6648 39.7808 33.5416 41.3565C32.3923 42.9688 30.9975 44.0469 29.3572 44.5908C27.7169 45.1347 25.9323 45.1705 24.0033 44.6981C22.0952 44.2222 20.1579 43.2833 18.1913 41.8815Z" fill="black"/>
<path d="M71.6602 37.5299L81.5817 43.9408L63.5702 71.8154L58.0142 68.2253L73.791 43.809L73.8556 43.9579L52.6849 64.7817L45.0123 59.824L55.2398 31.8487L55.3898 31.8653L39.5885 56.3194L34.0136 52.7171L52.0251 24.8424L61.9466 31.2533L50.8137 59.6348L50.3224 59.3173L71.6602 37.5299Z" fill="black"/>
<path d="M107.102 59.043L117.317 64.9752L100.65 93.6743L94.9299 90.3523L109.529 65.2138L109.6 65.3594L89.443 87.1659L81.5435 82.5784L90.43 54.1486L90.5806 54.1581L75.9593 79.3355L70.2195 76.0022L86.886 47.3031L97.1009 53.2352L87.3294 82.1136L86.8235 81.8198L107.102 59.043Z" fill="black"/>
<path d="M148.998 82.2128L157.408 86.43L143.524 114.119L138.812 111.756L151.115 87.221L151.209 87.315L132.974 108.828L126.366 105.515L132.634 77.977L132.775 77.9772L120.453 102.55L115.741 100.187L129.626 72.4983L138.035 76.7154L131.119 104.516L130.8 104.356L148.998 82.2128Z" fill="black"/>
<path d="M157.607 120.952C156.047 120.256 154.791 119.412 153.839 118.419C152.887 117.427 152.291 116.341 152.051 115.16C151.83 113.973 152.005 112.74 152.575 111.462C153.152 110.171 153.964 109.245 155.011 108.685C156.064 108.113 157.312 107.858 158.756 107.92C160.213 107.988 161.823 108.315 163.584 108.902C166.299 109.792 168.279 110.354 169.524 110.588C170.787 110.815 171.556 110.621 171.83 110.008C171.847 109.969 171.864 109.931 171.881 109.893C171.904 109.842 171.927 109.79 171.95 109.739C172.538 108.423 172.457 107.16 171.709 105.952C170.96 104.744 169.595 103.698 167.614 102.813C165.543 101.888 163.743 101.575 162.214 101.874C160.698 102.179 159.581 103.136 158.862 104.747L156.522 103.703C157.179 102.233 158.112 101.139 159.321 100.422C160.536 99.6917 161.938 99.3514 163.525 99.401C165.119 99.4377 166.81 99.8556 168.6 100.655C170.211 101.374 171.551 102.271 172.619 103.346C173.688 104.421 174.385 105.606 174.711 106.902C175.056 108.19 174.917 109.531 174.295 110.924C174.175 111.193 174.056 111.461 173.936 111.73C173.822 111.985 173.705 112.248 173.585 112.516L169.561 121.529C169.367 121.963 169.201 122.387 169.062 122.801C168.924 123.214 168.827 123.585 168.773 123.913C168.722 124.335 168.712 124.684 168.743 124.958C168.774 125.232 168.81 125.425 168.853 125.536L166.456 124.466C166.428 124.392 166.405 124.221 166.386 123.952C166.374 123.67 166.379 123.351 166.401 122.992C166.441 122.627 166.531 122.238 166.669 121.824C166.808 121.411 167.003 120.923 167.254 120.361L167.509 120.819C166.763 121.391 165.872 121.79 164.835 122.018C163.804 122.232 162.674 122.256 161.445 122.091C160.216 121.925 158.936 121.546 157.607 120.952ZM158.921 118.986C160.302 119.603 161.648 119.935 162.96 119.985C164.291 120.027 165.477 119.774 166.518 119.227C167.565 118.667 168.36 117.78 168.902 116.566L171.025 111.81L171.149 112.923C170.242 112.963 169.098 112.813 167.717 112.472C166.341 112.119 164.875 111.678 163.316 111.151C161.115 110.414 159.331 110.101 157.964 110.211C156.609 110.326 155.629 111.062 155.024 112.417C154.442 113.721 154.476 114.932 155.127 116.05C155.777 117.169 157.042 118.147 158.921 118.986Z" fill="black"/>
<path d="M191.539 134.772L195.635 124.468C195.889 123.831 196.09 123.323 196.24 122.946C196.39 122.569 196.538 122.198 196.683 121.834C197.143 120.676 197.336 119.585 197.261 118.561C197.204 117.529 196.849 116.604 196.194 115.786C195.545 114.956 194.557 114.277 193.23 113.749C192.059 113.284 190.844 113.139 189.583 113.316C188.328 113.48 187.185 113.929 186.154 114.665C185.137 115.405 184.382 116.393 183.891 117.629L182.645 116.501C183.27 114.927 184.235 113.676 185.538 112.747C186.854 111.824 188.314 111.26 189.918 111.054C191.534 110.853 193.084 111.047 194.567 111.637C196.141 112.262 197.388 113.105 198.308 114.164C199.233 115.209 199.786 116.416 199.965 117.783C200.163 119.142 199.947 120.615 199.316 122.202C199.098 122.749 198.866 123.334 198.617 123.959C198.369 124.583 198.144 125.149 197.942 125.656L193.939 135.726L191.539 134.772ZM176.63 128.844L184.869 108.12L187.289 109.082L179.05 129.806L176.63 128.844Z" fill="black"/>
<path d="M208.657 141.575C207.083 141.03 205.785 140.306 204.764 139.404C203.748 138.489 203.065 137.445 202.715 136.272C202.366 135.099 202.42 133.852 202.879 132.529C203.378 131.087 204.178 130.038 205.28 129.382C206.399 128.718 207.713 128.366 209.223 128.326C210.738 128.272 212.334 128.455 214.012 128.873C216.502 129.469 218.26 129.826 219.286 129.944C220.33 130.053 220.936 129.863 221.106 129.374C221.11 129.361 221.113 129.354 221.113 129.354C221.117 129.341 221.119 129.334 221.119 129.334C221.44 128.408 221.271 127.55 220.612 126.758C219.952 125.967 218.862 125.308 217.341 124.781C215.74 124.226 214.411 124.085 213.354 124.356C212.315 124.618 211.585 125.358 211.163 126.575L206.004 124.788C206.577 123.135 207.496 121.89 208.764 121.055C210.049 120.211 211.561 119.757 213.302 119.693C215.043 119.629 216.886 119.934 218.83 120.608C220.643 121.235 222.209 122.082 223.529 123.146C224.85 124.211 225.776 125.45 226.308 126.865C226.841 128.279 226.823 129.806 226.255 131.446C226.159 131.724 226.063 132.002 225.966 132.28C225.87 132.558 225.774 132.835 225.678 133.113L222.929 141.051C222.755 141.553 222.596 142.054 222.453 142.553C222.328 143.043 222.252 143.498 222.225 143.918C222.21 144.387 222.245 144.799 222.33 145.155C222.414 145.51 222.491 145.759 222.56 145.901L217.401 144.114C217.34 143.99 217.27 143.765 217.189 143.441C217.127 143.108 217.091 142.74 217.083 142.337C217.088 141.895 217.135 141.437 217.225 140.964C217.319 140.478 217.462 139.958 217.655 139.402L218.439 140.474C217.763 141.143 216.909 141.64 215.878 141.965C214.865 142.28 213.739 142.409 212.5 142.35C211.261 142.292 209.98 142.033 208.657 141.575ZM211.35 137.907C212.435 138.283 213.504 138.446 214.559 138.396C215.613 138.346 216.557 138.037 217.392 137.466C218.231 136.883 218.861 135.982 219.283 134.765L220.259 131.948L221.034 133.816C220.077 133.84 218.967 133.752 217.703 133.552C216.444 133.338 215.185 133.079 213.927 132.777C212.315 132.382 211.044 132.245 210.113 132.367C209.195 132.494 208.58 133.007 208.268 133.906C207.966 134.78 208.07 135.549 208.58 136.215C209.091 136.88 210.014 137.444 211.35 137.907Z" fill="black"/>
<path d="M241.533 149.279C242.76 149.77 243.8 150.329 244.652 150.958C245.504 151.586 246.098 152.322 246.435 153.164C246.768 154.02 246.765 155.026 246.427 156.182C246.05 157.471 245.286 158.459 244.138 159.144C242.989 159.829 241.494 160.179 239.651 160.194C237.822 160.213 235.678 159.863 233.219 159.143C229.645 158.097 227.049 156.775 225.43 155.179C223.808 153.595 223.254 151.923 223.769 150.163C223.915 149.666 224.107 149.233 224.346 148.866C224.585 148.498 224.831 148.205 225.084 147.988L229.735 150.115C229.623 150.199 229.493 150.343 229.346 150.548C229.194 150.766 229.07 151.043 228.971 151.379C228.727 152.212 229.11 152.973 230.119 153.662C231.138 154.369 232.581 154.996 234.448 155.542C235.819 155.943 236.988 156.184 237.957 156.263C238.939 156.346 239.717 156.282 240.289 156.07C240.875 155.862 241.237 155.523 241.375 155.053C241.579 154.354 241.395 153.812 240.823 153.425C240.25 153.039 239.537 152.684 238.683 152.362L230.779 149.239C229.371 148.666 228.301 147.886 227.569 146.899C226.85 145.916 226.662 144.839 227.004 143.67C227.213 142.958 227.594 142.355 228.147 141.86C228.713 141.37 229.304 140.996 229.919 140.738C230.538 140.467 231.036 140.336 231.413 140.344L234 142.72C233.706 142.678 233.317 142.761 232.833 142.969C232.362 143.182 232.062 143.51 231.932 143.953C231.81 144.369 231.896 144.774 232.19 145.166C232.488 145.545 233.158 145.945 234.201 146.367L241.533 149.279ZM249.576 130.693L254.333 132.085L249.968 139.822C249.149 141.275 248.155 142.501 246.987 143.501C245.819 144.502 244.459 145.161 242.907 145.48C241.355 145.799 239.558 145.66 237.516 145.062C235.393 144.441 233.659 143.561 232.314 142.424C230.987 141.277 230.09 139.956 229.622 138.463C229.159 136.956 229.167 135.383 229.647 133.744C230.138 132.064 230.994 130.71 232.214 129.682C233.452 128.643 234.922 127.98 236.626 127.691C238.343 127.406 240.149 127.54 242.044 128.095C243.576 128.543 244.878 129.201 245.951 130.07C247.029 130.925 247.812 131.861 248.302 132.88C248.805 133.902 248.949 134.878 248.736 135.808L247.482 135.682L249.576 130.693ZM238.693 140.965C239.728 141.267 240.67 141.361 241.521 141.245C242.372 141.13 243.098 140.817 243.699 140.307C244.304 139.784 244.741 139.066 245.008 138.152C245.272 137.252 245.289 136.418 245.062 135.652C244.834 134.885 244.393 134.223 243.739 133.667C243.089 133.098 242.253 132.663 241.232 132.364C240.237 132.073 239.306 131.991 238.438 132.116C237.57 132.241 236.818 132.568 236.182 133.096C235.563 133.616 235.122 134.325 234.859 135.225C234.595 136.126 234.577 136.959 234.805 137.726C235.05 138.483 235.5 139.14 236.154 139.696C236.825 140.243 237.672 140.666 238.693 140.965Z" fill="black"/>
<path d="M257.275 145.504L257.801 143.233L275.396 147.301L274.744 147.883C274.763 147.801 274.779 147.733 274.792 147.678C274.808 147.61 274.823 147.542 274.839 147.474C275.164 146.069 275.167 144.69 274.847 143.337C274.528 141.985 273.88 140.807 272.905 139.806C271.943 138.808 270.644 138.119 269.007 137.741C267.343 137.356 265.788 137.399 264.343 137.869C262.901 138.326 261.671 139.141 260.652 140.314C259.637 141.473 258.926 142.932 258.519 144.692C258.109 146.465 258.096 148.107 258.479 149.619C258.88 151.119 259.627 152.391 260.722 153.435C261.821 154.465 263.215 155.175 264.907 155.566C266.148 155.853 267.26 155.952 268.244 155.864C269.244 155.764 270.102 155.532 270.819 155.166C271.549 154.803 272.136 154.378 272.579 153.892C273.039 153.394 273.355 152.9 273.526 152.408L276.042 152.99C275.802 153.782 275.352 154.547 274.693 155.286C274.05 156.014 273.222 156.641 272.21 157.169C271.21 157.699 270.038 158.046 268.693 158.209C267.364 158.362 265.895 158.252 264.286 157.88C262.185 157.394 260.427 156.485 259.011 155.151C257.608 153.821 256.63 152.209 256.077 150.313C255.541 148.407 255.526 146.357 256.034 144.16C256.545 141.951 257.465 140.116 258.794 138.656C260.126 137.182 261.721 136.157 263.579 135.58C265.436 135.004 267.409 134.957 269.496 135.44C271.624 135.932 273.353 136.842 274.684 138.17C276.015 139.498 276.911 141.091 277.372 142.951C277.836 144.797 277.83 146.75 277.354 148.81C277.313 148.987 277.254 149.21 277.177 149.48C277.114 149.753 277.062 149.949 277.02 150.069L257.275 145.504Z" fill="black"/>
<path d="M282.108 161.282L285.955 139.314L288.52 139.763L287.386 146.238L286.527 145.789C286.73 145.114 287.056 144.431 287.504 143.742C287.967 143.042 288.547 142.411 289.242 141.851C289.937 141.29 290.754 140.886 291.693 140.638C292.648 140.379 293.732 140.356 294.946 140.569C295.828 140.723 296.525 140.923 297.036 141.169C297.548 141.415 297.865 141.591 297.988 141.698L296.85 144.057C296.729 143.937 296.468 143.763 296.067 143.537C295.667 143.31 295.066 143.127 294.266 142.987C293.108 142.784 292.096 142.841 291.23 143.158C290.367 143.462 289.638 143.931 289.044 144.566C288.449 145.201 287.977 145.907 287.628 146.685C287.281 147.448 287.042 148.203 286.912 148.947L284.673 161.731L282.108 161.282Z" fill="black"/>
<path d="M322.464 167.371C320.328 167.205 318.427 166.734 316.76 165.958C315.107 165.183 313.834 164.136 312.94 162.817C312.047 161.483 311.671 159.909 311.812 158.095C311.927 156.615 312.413 155.333 313.27 154.249C314.141 153.165 315.35 152.164 316.896 151.245C318.456 150.327 320.326 149.385 322.508 148.418C324.401 147.554 325.795 146.694 326.69 145.837C327.587 144.966 328.073 144.035 328.151 143.044C328.199 142.429 328.106 141.91 327.872 141.484C327.639 141.045 327.308 140.696 326.879 140.438C326.45 140.18 325.956 140.029 325.398 139.985C324.867 139.944 324.356 140.017 323.864 140.203C323.387 140.377 322.986 140.661 322.66 141.057C322.35 141.44 322.17 141.939 322.123 142.553C322.056 143.404 322.265 144.333 322.748 145.34C323.245 146.347 323.897 147.437 324.705 148.61L334.263 162.182C334.732 162.837 335.183 163.265 335.617 163.467C336.05 163.67 336.414 163.782 336.707 163.805C337.014 163.829 337.338 163.812 337.68 163.754C338.035 163.698 338.292 163.648 338.45 163.604L338.099 168.105C338.013 168.126 337.735 168.175 337.266 168.251C336.796 168.341 336.198 168.357 335.472 168.301C334.69 168.24 333.873 168.008 333.019 167.604C332.167 167.187 331.457 166.57 330.889 165.753L320.484 151.146C319.904 150.3 319.308 149.383 318.697 148.394C318.087 147.392 317.593 146.342 317.216 145.246C316.839 144.135 316.695 143.001 316.786 141.842C316.882 140.6 317.326 139.504 318.116 138.555C318.921 137.592 319.975 136.86 321.278 136.358C322.582 135.841 324.051 135.647 325.684 135.774C327.345 135.903 328.759 136.316 329.927 137.01C331.094 137.705 331.974 138.581 332.566 139.638C333.157 140.695 333.405 141.845 333.308 143.087C333.198 144.497 332.793 145.736 332.091 146.805C331.404 147.875 330.444 148.846 329.21 149.719C327.992 150.579 326.53 151.413 324.824 152.221C322.608 153.27 320.904 154.225 319.714 155.088C318.538 155.937 317.901 156.997 317.802 158.267C317.741 159.048 317.93 159.772 318.37 160.438C318.811 161.091 319.422 161.623 320.204 162.035C321.001 162.448 321.894 162.693 322.885 162.77C324.588 162.903 326.046 162.75 327.26 162.311C328.488 161.873 329.547 161.253 330.438 160.452C331.374 159.612 332.138 158.646 332.728 157.555C333.32 156.45 333.683 155.039 333.816 153.322L339.092 153.733C338.959 155.45 338.631 156.955 338.109 158.248C337.601 159.543 336.972 160.673 336.222 161.64C335.474 162.593 334.665 163.428 333.794 164.147C332.471 165.265 330.846 166.129 328.916 166.737C327.001 167.346 324.85 167.557 322.464 167.371Z" fill="black"/>
<path d="M381.661 155.823C381.736 157.136 381.568 158.485 381.157 159.869C380.745 161.253 380.07 162.554 379.13 163.772C378.203 164.975 376.998 165.969 375.515 166.755C374.031 167.542 372.262 167.994 370.208 168.111C367.426 168.271 365.011 167.729 362.963 166.486C360.928 165.229 359.324 163.435 358.153 161.104C356.996 158.772 356.328 156.055 356.15 152.952C355.971 149.835 356.324 147.053 357.207 144.604C358.104 142.155 359.492 140.196 361.371 138.728C363.264 137.259 365.602 136.445 368.383 136.286C370.689 136.153 372.685 136.481 374.371 137.268C376.057 138.054 377.429 139.112 378.486 140.439C379.544 141.767 380.284 143.176 380.706 144.666C380.966 145.535 381.119 146.367 381.165 147.164L375.609 147.482C375.586 147.077 375.534 146.659 375.453 146.229C375.238 145.176 374.826 144.232 374.218 143.397C373.622 142.548 372.856 141.898 371.918 141.447C370.98 140.982 369.889 140.785 368.645 140.856C367.163 140.941 365.88 141.428 364.795 142.318C363.725 143.207 362.916 144.508 362.369 146.222C361.822 147.936 361.622 150.072 361.769 152.63C361.914 155.16 362.356 157.252 363.096 158.906C363.836 160.561 364.789 161.775 365.955 162.55C367.136 163.323 368.467 163.668 369.948 163.583C371.01 163.522 371.936 163.273 372.724 162.835C373.512 162.397 374.167 161.833 374.688 161.145C375.209 160.442 375.585 159.663 375.816 158.808C376.062 157.953 376.158 157.064 376.105 156.141L381.661 155.823Z" fill="black"/>
<path d="M399.753 165.026C397.592 165.34 395.609 165.126 393.803 164.384C391.996 163.628 390.495 162.452 389.302 160.857C388.108 159.262 387.353 157.377 387.037 155.202C386.719 153.013 386.907 150.998 387.602 149.157C388.296 147.316 389.404 145.79 390.926 144.579C392.448 143.367 394.289 142.605 396.45 142.291C398.612 141.977 400.594 142.184 402.398 142.912C404.201 143.64 405.698 144.788 406.887 146.355C408.077 147.923 408.831 149.801 409.149 151.99C409.465 154.165 409.278 156.187 408.587 158.056C407.897 159.924 406.792 161.478 405.275 162.717C403.755 163.942 401.915 164.712 399.753 165.026ZM399.412 162.678C401.075 162.436 402.48 161.836 403.628 160.877C404.79 159.916 405.632 158.697 406.153 157.221C406.674 155.745 406.807 154.127 406.551 152.367C406.293 150.594 405.707 149.087 404.791 147.848C403.875 146.609 402.726 145.708 401.343 145.145C399.971 144.566 398.454 144.397 396.792 144.639C395.143 144.879 393.737 145.472 392.573 146.419C391.407 147.352 390.561 148.543 390.036 149.992C389.511 151.44 389.377 153.051 389.635 154.825C389.89 156.584 390.478 158.098 391.398 159.364C392.317 160.631 393.471 161.56 394.858 162.151C396.246 162.742 397.764 162.917 399.412 162.678Z" fill="black"/>
<path d="M431.972 158.591L429.602 147.759C429.456 147.089 429.339 146.556 429.252 146.159C429.165 145.763 429.08 145.373 428.996 144.99C428.73 143.773 428.279 142.761 427.644 141.954C427.02 141.13 426.208 140.563 425.208 140.251C424.205 139.926 423.007 139.916 421.612 140.221C420.381 140.49 419.292 141.051 418.346 141.903C417.398 142.741 416.702 143.753 416.259 144.939C415.83 146.122 415.758 147.363 416.042 148.663L414.378 148.425C414.016 146.77 414.115 145.193 414.676 143.695C415.25 142.193 416.144 140.909 417.358 139.84C418.585 138.769 419.979 138.063 421.538 137.722C423.193 137.36 424.697 137.36 426.052 137.723C427.404 138.072 428.537 138.763 429.451 139.796C430.375 140.812 431.02 142.154 431.385 143.822C431.511 144.397 431.645 145.012 431.789 145.669C431.933 146.325 432.063 146.92 432.179 147.454L434.495 158.039L431.972 158.591ZM416.299 162.02L411.532 140.234L414.076 139.677L418.843 161.464L416.299 162.02Z" fill="black"/>
<path d="M453.161 153.462C452.447 153.663 451.711 153.789 450.955 153.841C450.213 153.889 449.49 153.801 448.787 153.577C448.094 153.335 447.469 152.892 446.91 152.249C446.352 151.606 445.904 150.685 445.568 149.485C445.488 149.202 445.405 148.905 445.318 148.595C445.231 148.285 445.142 147.969 445.052 147.645L442.052 136.949L436.896 138.395L435.875 134.755L438.584 133.996C439.164 133.833 439.61 133.686 439.922 133.555C440.244 133.406 440.454 133.224 440.553 133.007C440.662 132.773 440.68 132.448 440.607 132.032C440.534 131.617 440.399 131.058 440.203 130.357L439.04 126.212L443.428 124.981L445.418 132.079L451.99 130.235L453.011 133.875L446.439 135.718L449.11 145.242C449.186 145.511 449.262 145.781 449.337 146.05C449.413 146.32 449.483 146.569 449.547 146.799C449.85 147.877 450.216 148.69 450.646 149.238C451.089 149.783 451.783 149.923 452.727 149.658C453.131 149.545 453.506 149.403 453.851 149.234C454.196 149.064 454.451 148.913 454.617 148.779L455.621 152.358C455.405 152.52 455.086 152.704 454.664 152.91C454.242 153.115 453.741 153.3 453.161 153.462Z" fill="black"/>
<path d="M461.351 140.225L460.605 138.016L477.717 132.239L477.467 133.077C477.441 132.997 477.418 132.931 477.4 132.878C477.378 132.812 477.355 132.745 477.333 132.679C476.872 131.313 476.15 130.138 475.168 129.154C474.186 128.171 473.017 127.509 471.661 127.169C470.318 126.825 468.851 126.921 467.259 127.458C465.641 128.005 464.34 128.857 463.357 130.017C462.37 131.163 461.751 132.502 461.5 134.035C461.245 135.554 461.406 137.17 461.983 138.881C462.566 140.605 463.417 142.01 464.536 143.095C465.665 144.162 466.969 144.852 468.449 145.165C469.925 145.465 471.485 145.337 473.13 144.782C474.337 144.374 475.335 143.874 476.125 143.282C476.924 142.673 477.533 142.024 477.951 141.336C478.382 140.644 478.658 139.974 478.78 139.328C478.91 138.663 478.919 138.076 478.806 137.568L481.254 136.741C481.465 137.542 481.484 138.43 481.31 139.404C481.146 140.361 480.771 141.33 480.186 142.311C479.614 143.287 478.799 144.197 477.739 145.043C476.689 145.87 475.381 146.548 473.816 147.077C471.773 147.766 469.799 147.916 467.894 147.524C466.002 147.129 464.323 146.27 462.857 144.947C461.4 143.607 460.31 141.869 459.589 139.734C458.864 137.585 458.683 135.54 459.048 133.599C459.408 131.646 460.227 129.936 461.505 128.47C462.783 127.004 464.437 125.928 466.467 125.243C468.536 124.545 470.486 124.411 472.316 124.842C474.146 125.274 475.745 126.159 477.114 127.5C478.478 128.827 479.498 130.493 480.175 132.495C480.233 132.668 480.3 132.889 480.376 133.159C480.466 133.424 480.524 133.619 480.551 133.743L461.351 140.225Z" fill="black"/>
<path d="M505.033 135.018L500.934 124.716C500.68 124.079 500.478 123.571 500.328 123.194C500.178 122.817 500.03 122.446 499.885 122.082C499.425 120.924 498.816 119.999 498.058 119.306C497.308 118.595 496.414 118.167 495.377 118.022C494.335 117.864 493.15 118.049 491.823 118.577C490.653 119.043 489.67 119.773 488.875 120.768C488.075 121.749 487.554 122.861 487.31 124.103C487.079 125.34 487.209 126.576 487.701 127.812L486.02 127.848C485.394 126.274 485.235 124.702 485.545 123.133C485.867 121.558 486.541 120.145 487.565 118.893C488.601 117.637 489.861 116.714 491.344 116.124C492.918 115.497 494.403 115.253 495.799 115.391C497.19 115.515 498.42 116.013 499.489 116.883C500.567 117.735 501.421 118.955 502.053 120.542C502.27 121.088 502.503 121.673 502.751 122.298C503 122.922 503.225 123.488 503.427 123.995L507.433 134.063L505.033 135.018ZM490.126 140.95L481.88 120.229L484.3 119.266L492.546 139.987L490.126 140.95Z" fill="black"/>
<path d="M525.122 126.742C524.445 127.046 523.737 127.28 522.997 127.443C522.27 127.601 521.542 127.621 520.814 127.503C520.093 127.366 519.408 127.021 518.761 126.468C518.113 125.915 517.534 125.07 517.024 123.933C516.903 123.665 516.777 123.384 516.645 123.09C516.513 122.796 516.379 122.496 516.241 122.19L511.69 112.056L506.805 114.249L505.257 110.801L507.824 109.648C508.373 109.402 508.792 109.191 509.081 109.015C509.378 108.82 509.559 108.608 509.625 108.379C509.698 108.132 509.667 107.808 509.534 107.407C509.4 107.007 509.184 106.475 508.886 105.811L507.122 101.883L511.279 100.017L514.299 106.741L520.525 103.945L522.073 107.393L515.847 110.189L519.899 119.212C520.014 119.467 520.129 119.723 520.243 119.978C520.358 120.234 520.464 120.47 520.562 120.687C521.02 121.709 521.503 122.459 522.01 122.937C522.529 123.41 523.235 123.446 524.129 123.044C524.513 122.872 524.862 122.677 525.178 122.458C525.494 122.239 525.725 122.052 525.869 121.895L527.392 125.286C527.202 125.478 526.914 125.707 526.527 125.973C526.14 126.239 525.671 126.495 525.122 126.742Z" fill="black"/>
<path d="M553.866 112.889C551.777 113.969 549.708 114.496 547.661 114.467C545.613 114.439 543.733 113.882 542.021 112.797C540.309 111.712 538.913 110.125 537.833 108.036C536.759 105.96 536.28 103.922 536.397 101.923C536.513 99.9237 537.161 98.099 538.341 96.4486C539.514 94.7858 541.146 93.4141 543.235 92.3336C544.801 91.5232 546.307 91.0361 547.751 90.8724C549.195 90.7086 550.527 90.8 551.747 91.1465C552.972 91.4741 554.04 91.9855 554.952 92.6806C555.856 93.3632 556.544 94.1584 557.013 95.0662C557.026 95.0911 557.039 95.1159 557.052 95.1408C557.064 95.1657 557.077 95.1906 557.09 95.2154L552.222 97.7334C552.19 97.6712 552.148 97.6061 552.097 97.5379C552.046 97.4697 551.995 97.4015 551.944 97.3333C551.516 96.7506 550.966 96.3104 550.292 96.0128C549.611 95.7028 548.849 95.5692 548.004 95.6121C547.159 95.6549 546.252 95.9272 545.282 96.4289C544.25 96.9627 543.424 97.6815 542.804 98.5854C542.189 99.4704 541.862 100.499 541.822 101.67C541.794 102.835 542.131 104.095 542.832 105.451C543.526 106.794 544.367 107.809 545.353 108.497C546.333 109.172 547.374 109.54 548.477 109.6C549.586 109.641 550.662 109.392 551.707 108.852C552.814 108.279 553.628 107.645 554.151 106.949C554.68 106.234 554.977 105.498 555.041 104.739C555.1 103.968 554.977 103.228 554.673 102.518L559.56 99.9905C560.036 100.911 560.304 101.947 560.363 103.098C560.416 104.237 560.232 105.404 559.81 106.599C559.388 107.795 558.687 108.938 557.706 110.028C556.738 111.112 555.458 112.066 553.866 112.889Z" fill="black"/>
<path d="M568.52 104.607L557.591 85.1666L562.405 82.4601L566.038 88.9221L564.571 88.9274C564.22 88.0167 564 87.0966 563.911 86.1669C563.815 85.225 563.884 84.319 564.118 83.4489C564.344 82.5666 564.759 81.7473 565.362 80.9909C565.964 80.2346 566.766 79.5751 567.767 79.0125C568.56 78.5666 569.217 78.2777 569.737 78.1459C570.262 77.9951 570.601 77.9254 570.752 77.9369L572.353 82.8425C572.183 82.8257 571.874 82.8626 571.427 82.9532C570.986 83.0248 570.454 83.2355 569.831 83.5854C568.843 84.1411 568.109 84.7785 567.63 85.4975C567.156 86.1975 566.885 86.944 566.817 87.7371C566.742 88.5181 566.812 89.2982 567.025 90.0777C567.231 90.845 567.523 91.5642 567.901 92.2354L573.334 101.901L568.52 104.607Z" fill="black"/>
<path d="M581.862 85.4946L580.652 83.5025L596.086 74.1243L596.026 74.9962C595.982 74.9244 595.946 74.8646 595.917 74.8168C595.88 74.7569 595.844 74.6971 595.808 74.6373C595.059 73.405 594.098 72.4163 592.924 71.6713C591.751 70.9264 590.465 70.5362 589.068 70.5008C587.682 70.4581 586.271 70.873 584.836 71.7454C583.376 72.6323 582.293 73.7488 581.588 75.0949C580.875 76.4291 580.564 77.8714 580.654 79.422C580.737 80.9606 581.247 82.5016 582.185 84.045C583.13 85.6004 584.268 86.7849 585.598 87.5986C586.932 88.3931 588.356 88.7813 589.868 88.7633C591.374 88.7332 592.868 88.2675 594.352 87.366C595.44 86.7045 596.306 85.9985 596.947 85.2482C597.594 84.4787 598.046 83.7126 598.303 82.9501C598.573 82.1802 598.696 81.4665 598.673 80.8087C598.655 80.1317 598.535 79.5573 598.314 79.0856L600.521 77.7443C600.902 78.4793 601.115 79.3412 601.159 80.3302C601.208 81.3 601.054 82.3272 600.697 83.4121C600.353 84.4897 599.756 85.5567 598.907 86.6131C598.063 87.6502 596.935 88.5977 595.523 89.4556C593.681 90.5751 591.787 91.1524 589.842 91.1872C587.91 91.2148 586.083 90.7436 584.364 89.7736C582.649 88.7844 581.206 87.3266 580.035 85.4004C578.858 83.4621 578.235 81.5064 578.166 79.5331C578.09 77.5479 578.515 75.7003 579.442 73.9904C580.369 72.2805 581.748 70.8694 583.578 69.7571C585.445 68.623 587.318 68.0663 589.198 68.087C591.078 68.1077 592.833 68.6226 594.462 69.6315C596.083 70.6285 597.443 72.0303 598.54 73.8369C598.635 73.9924 598.749 74.1935 598.882 74.44C599.028 74.6793 599.127 74.8564 599.181 74.9714L581.862 85.4946Z" fill="black"/>
<path d="M616.842 76.0017C615.416 76.9422 614.029 77.547 612.681 77.8161C611.332 78.0852 610.096 78.0034 608.972 77.5708C607.852 77.1188 606.906 76.3085 606.135 75.1399C605.357 73.9595 605.013 72.7774 605.104 71.5936C605.188 70.398 605.644 69.2082 606.473 68.0241C607.314 66.8322 608.455 65.6515 609.897 64.482C612.108 62.6717 613.646 61.3047 614.513 60.3809C615.383 59.4377 615.634 58.6856 615.264 58.1247C615.241 58.0896 615.217 58.0545 615.194 58.0195C615.163 57.9727 615.133 57.926 615.102 57.8792C614.308 56.6755 613.2 56.0644 611.779 56.0458C610.358 56.0272 608.742 56.6154 606.93 57.8103C605.037 59.0591 603.806 60.4082 603.235 61.8577C602.677 63.2994 602.884 64.7565 603.855 66.229L601.716 67.6397C600.83 66.2958 600.409 64.9211 600.455 63.5157C600.493 62.0986 600.96 60.7341 601.855 59.4222C602.743 58.0985 604.005 56.8971 605.641 55.8178C607.114 54.8465 608.591 54.1994 610.071 53.8766C611.552 53.5538 612.927 53.6032 614.194 54.0249C615.466 54.4271 616.522 55.2652 617.362 56.539C617.524 56.7844 617.686 57.0298 617.848 57.2753C618.002 57.509 618.16 57.7486 618.322 57.994L623.757 66.2329C624.019 66.6303 624.287 66.9985 624.561 67.3377C624.835 67.6768 625.096 67.9577 625.343 68.1802C625.672 68.4497 625.96 68.6453 626.208 68.7669C626.456 68.8884 626.638 68.9612 626.755 68.985L624.563 70.4304C624.486 70.4145 624.329 70.3419 624.093 70.2126C623.849 70.0717 623.582 69.8956 623.292 69.6845C623.005 69.454 622.725 69.1692 622.451 68.8301C622.177 68.4909 621.871 68.0642 621.531 67.55L622.055 67.5817C622.136 68.5179 621.994 69.4841 621.628 70.4802C621.254 71.4646 620.667 72.4306 619.866 73.378C619.066 74.3254 618.058 75.2 616.842 76.0017ZM615.892 73.8362C617.154 73.0036 618.158 72.0475 618.905 70.9678C619.656 69.8687 620.081 68.7331 620.18 67.5609C620.271 66.3771 619.951 65.23 619.218 64.1198L616.351 59.7724L617.356 60.2666C616.902 61.0526 616.159 61.9363 615.13 62.9175C614.092 63.8871 612.932 64.8871 611.649 65.9176C609.844 67.3765 608.621 68.7121 607.978 69.9243C607.347 71.1289 607.44 72.3505 608.257 73.5893C609.043 74.7813 610.083 75.4037 611.376 75.4566C612.668 75.5095 614.174 74.9694 615.892 73.8362Z" fill="black"/>
<path d="M640.883 59.5663C640.277 59.9948 639.627 60.3604 638.933 60.6632C638.249 60.9579 637.539 61.1174 636.802 61.1417C636.068 61.1465 635.33 60.9397 634.588 60.5213C633.846 60.1028 633.115 59.385 632.396 58.3678C632.226 58.1278 632.048 57.8763 631.862 57.6135C631.676 57.3506 631.486 57.082 631.292 56.8077L624.877 47.7384L620.505 50.8309L618.322 47.745L620.619 46.1199C621.111 45.7722 621.481 45.4843 621.732 45.2559C621.985 45.0081 622.122 44.7654 622.143 44.5279C622.167 44.2708 622.074 43.9588 621.866 43.5916C621.658 43.2245 621.343 42.7438 620.923 42.1494L618.437 38.6349L622.157 36.0032L626.414 42.0208L631.986 38.0793L634.169 41.1653L628.597 45.1067L634.309 53.1816C634.471 53.4102 634.632 53.6388 634.794 53.8674C634.956 54.096 635.105 54.3074 635.243 54.5017C635.89 55.4161 636.508 56.0594 637.097 56.4315C637.697 56.7955 638.397 56.6946 639.197 56.1286C639.54 55.8861 639.846 55.6271 640.114 55.3517C640.382 55.0762 640.572 54.8476 640.684 54.6658L642.83 57.7004C642.681 57.9259 642.442 58.2064 642.113 58.5417C641.785 58.8771 641.375 59.2186 640.883 59.5663Z" fill="black"/>
<path d="M658.544 46.5723C656.807 47.8962 654.969 48.672 653.03 48.8998C651.083 49.1165 649.201 48.8174 647.383 48.0027C645.565 47.1879 643.989 45.9064 642.657 44.1583C641.316 42.399 640.503 40.546 640.216 38.5994C639.929 36.6527 640.157 34.7805 640.899 32.9827C641.641 31.1849 642.881 29.6241 644.618 28.3002C646.355 26.9764 648.188 26.195 650.119 25.956C652.049 25.7171 653.914 25.9939 655.715 26.7864C657.516 27.5789 659.087 28.8548 660.428 30.6141C661.761 32.3622 662.579 34.2207 662.882 36.1897C663.186 38.1586 662.975 40.0531 662.25 41.8731C661.516 43.682 660.281 45.2484 658.544 46.5723ZM657.105 44.685C658.442 43.6666 659.379 42.4595 659.917 41.0637C660.466 39.6594 660.61 38.1855 660.349 36.6419C660.088 35.0982 659.418 33.6194 658.34 32.2053C657.254 30.78 656.01 29.748 654.608 29.1092C653.206 28.4704 651.763 28.2408 650.28 28.4203C648.8 28.5801 647.392 29.1692 646.056 30.1876C644.731 31.1974 643.79 32.399 643.232 33.7921C642.666 35.1741 642.505 36.6258 642.749 38.1472C642.993 39.6685 643.659 41.1418 644.745 42.5671C645.823 43.9812 647.071 45.0188 648.49 45.6798C649.909 46.3409 651.369 46.5928 652.868 46.4356C654.368 46.2784 655.78 45.6949 657.105 44.685Z" fill="black"/>
<path d="M673.213 34.6346L658.756 17.6537L660.738 15.9656L664.999 20.9704L664.105 21.3455C663.715 20.7581 663.398 20.0722 663.153 19.2878C662.91 18.4837 662.794 17.6352 662.806 16.7424C662.818 15.8495 663.029 14.9626 663.437 14.0817C663.847 13.1811 664.521 12.3314 665.459 11.5328C666.141 10.9519 666.74 10.5431 667.256 10.3064C667.771 10.0697 668.109 9.93797 668.271 9.91117L669.361 12.2928C669.19 12.3089 668.89 12.399 668.46 12.5631C668.03 12.7272 667.505 13.0725 666.887 13.5989C665.992 14.3612 665.39 15.177 665.082 16.0461C664.765 16.9045 664.661 17.7652 664.77 18.628C664.88 19.4909 665.122 20.3049 665.498 21.07C665.864 21.8244 666.293 22.4894 666.783 23.065L675.196 32.9465L673.213 34.6346Z" fill="black"/>
</svg>
