<svg width="150" height="20" viewBox="0 0 150 20" fill="none" xmlns="http://www.w3.org/2000/svg">
<path d="M6.768 19.8C6.008 19.8 5.268 19.712 4.548 19.536C3.836 19.36 3.188 19.096 2.604 18.744C2.028 18.384 1.564 17.936 1.212 17.4C0.868 16.864 0.696 16.24 0.696 15.528C0.696 15.504 0.696 15.476 0.696 15.444C0.696 15.412 0.696 15.384 0.696 15.36H4.944C4.944 15.384 4.944 15.408 4.944 15.432C4.944 15.456 4.944 15.48 4.944 15.504C4.944 15.904 5.116 16.192 5.46 16.368C5.812 16.544 6.288 16.632 6.888 16.632C7.16 16.632 7.436 16.604 7.716 16.548C8.004 16.484 8.244 16.384 8.436 16.248C8.636 16.104 8.736 15.924 8.736 15.708C8.736 15.364 8.528 15.12 8.112 14.976C7.704 14.832 7.012 14.68 6.036 14.52C5.476 14.432 4.892 14.3 4.284 14.124C3.684 13.948 3.124 13.712 2.604 13.416C2.084 13.12 1.664 12.744 1.344 12.288C1.024 11.832 0.864 11.272 0.864 10.608C0.864 9.704 1.136 8.952 1.68 8.352C2.224 7.744 2.944 7.284 3.84 6.972C4.744 6.66 5.736 6.504 6.816 6.504C7.84 6.504 8.796 6.676 9.684 7.02C10.58 7.364 11.304 7.856 11.856 8.496C12.416 9.136 12.696 9.896 12.696 10.776C12.696 10.792 12.696 10.816 12.696 10.848C12.696 10.872 12.696 10.896 12.696 10.92H8.496C8.496 10.896 8.496 10.872 8.496 10.848C8.496 10.824 8.496 10.804 8.496 10.788C8.496 10.516 8.408 10.296 8.232 10.128C8.064 9.96 7.848 9.836 7.584 9.756C7.328 9.676 7.064 9.636 6.792 9.636C6.56 9.636 6.308 9.664 6.036 9.72C5.764 9.768 5.532 9.856 5.34 9.984C5.148 10.104 5.052 10.284 5.052 10.524C5.052 10.732 5.164 10.908 5.388 11.052C5.612 11.196 5.92 11.316 6.312 11.412C6.704 11.5 7.152 11.584 7.656 11.664C8.152 11.736 8.7 11.848 9.3 12C9.9 12.152 10.472 12.372 11.016 12.66C11.56 12.94 12.004 13.316 12.348 13.788C12.7 14.26 12.876 14.86 12.876 15.588C12.876 16.356 12.7 17.008 12.348 17.544C11.996 18.08 11.52 18.516 10.92 18.852C10.328 19.18 9.672 19.42 8.952 19.572C8.232 19.724 7.504 19.8 6.768 19.8ZM21.4178 19.788C20.0098 19.788 18.7698 19.508 17.6978 18.948C16.6338 18.38 15.7978 17.596 15.1898 16.596C14.5898 15.596 14.2898 14.444 14.2898 13.14C14.2898 11.828 14.5898 10.676 15.1898 9.684C15.7978 8.684 16.6338 7.904 17.6978 7.344C18.7698 6.784 20.0098 6.504 21.4178 6.504C22.8258 6.504 24.0618 6.784 25.1258 7.344C26.1978 7.904 27.0338 8.684 27.6338 9.684C28.2418 10.676 28.5458 11.828 28.5458 13.14C28.5458 14.444 28.2418 15.596 27.6338 16.596C27.0338 17.596 26.1978 18.38 25.1258 18.948C24.0618 19.508 22.8258 19.788 21.4178 19.788ZM21.4178 16.488C21.9938 16.488 22.4898 16.348 22.9058 16.068C23.3218 15.788 23.6418 15.4 23.8658 14.904C24.0898 14.4 24.2018 13.812 24.2018 13.14C24.2018 12.46 24.0898 11.872 23.8658 11.376C23.6418 10.88 23.3218 10.496 22.9058 10.224C22.4898 9.952 21.9938 9.816 21.4178 9.816C20.8498 9.816 20.3538 9.952 19.9297 10.224C19.5138 10.496 19.1938 10.88 18.9698 11.376C18.7458 11.872 18.6338 12.46 18.6338 13.14C18.6338 13.812 18.7458 14.4 18.9698 14.904C19.1938 15.4 19.5138 15.788 19.9297 16.068C20.3538 16.348 20.8498 16.488 21.4178 16.488ZM32.0591 19.5V9.996H29.4551V6.756H32.0591V6.132C32.0591 5.196 32.1911 4.404 32.4551 3.756C32.7191 3.108 33.0711 2.576 33.5111 2.16C33.9511 1.744 34.4351 1.42 34.9631 1.188C35.4991 0.955999 36.0391 0.795999 36.5831 0.707999C37.1351 0.619999 37.6471 0.576 38.1191 0.576C38.6951 0.576 39.1151 0.607999 39.3791 0.671999C39.6511 0.735999 39.8351 0.787999 39.9311 0.827999V4.092C39.8351 4.06 39.6631 4.024 39.4151 3.984C39.1671 3.936 38.8991 3.912 38.6111 3.912C38.1711 3.912 37.8031 3.968 37.5071 4.08C37.2111 4.184 36.9791 4.34 36.8111 4.548C36.6431 4.756 36.5191 5.004 36.4391 5.292C36.3671 5.572 36.3311 5.888 36.3311 6.24V6.756H39.6551V9.996H36.3311V19.5H32.0591ZM41.1671 19.5V6.756H45.4031V19.5H41.1671ZM43.2791 4.968C42.6391 4.968 42.0751 4.8 41.5871 4.464C41.1071 4.128 40.8671 3.652 40.8671 3.036C40.8671 2.412 41.1071 1.936 41.5871 1.608C42.0751 1.272 42.6391 1.104 43.2791 1.104C43.9271 1.104 44.4911 1.272 44.9711 1.608C45.4511 1.936 45.6911 2.412 45.6911 3.036C45.6911 3.66 45.4511 4.14 44.9711 4.476C44.4911 4.804 43.9271 4.968 43.2791 4.968ZM47.5686 19.5V6.756H51.8046V19.5H47.5686ZM49.6806 4.968C49.0406 4.968 48.4766 4.8 47.9886 4.464C47.5086 4.128 47.2686 3.652 47.2686 3.036C47.2686 2.412 47.5086 1.936 47.9886 1.608C48.4766 1.272 49.0406 1.104 49.6806 1.104C50.3286 1.104 50.8926 1.272 51.3726 1.608C51.8526 1.936 52.0926 2.412 52.0926 3.036C52.0926 3.66 51.8526 4.14 51.3726 4.476C50.8926 4.804 50.3286 4.968 49.6806 4.968ZM58.479 19.776C57.559 19.776 56.739 19.632 56.019 19.344C55.299 19.048 54.731 18.62 54.315 18.06C53.899 17.5 53.691 16.82 53.691 16.02C53.691 15.1 53.951 14.356 54.471 13.788C54.991 13.212 55.667 12.776 56.499 12.48C57.331 12.176 58.211 11.98 59.139 11.892C60.483 11.764 61.399 11.652 61.887 11.556C62.383 11.452 62.631 11.276 62.631 11.028C62.631 11.02 62.631 11.016 62.631 11.016C62.631 11.008 62.631 11.004 62.631 11.004C62.631 10.62 62.427 10.308 62.019 10.068C61.619 9.828 61.067 9.708 60.363 9.708C59.619 9.708 59.055 9.844 58.671 10.116C58.295 10.38 58.107 10.784 58.107 11.328H53.883C53.883 10.28 54.171 9.4 54.747 8.688C55.331 7.968 56.115 7.424 57.099 7.056C58.083 6.688 59.183 6.504 60.399 6.504C61.551 6.504 62.619 6.676 63.603 7.02C64.595 7.364 65.395 7.888 66.003 8.592C66.619 9.296 66.927 10.192 66.927 11.28C66.927 11.448 66.927 11.616 66.927 11.784C66.927 11.952 66.927 12.12 66.927 12.288V16.512C66.927 16.848 66.935 17.176 66.951 17.496C66.967 17.808 67.011 18.096 67.083 18.36C67.171 18.648 67.279 18.892 67.407 19.092C67.543 19.292 67.651 19.428 67.731 19.5H63.543C63.479 19.436 63.383 19.312 63.255 19.128C63.135 18.944 63.031 18.732 62.943 18.492C62.839 18.172 62.763 17.864 62.715 17.568C62.667 17.264 62.643 16.904 62.643 16.488L63.555 17.112C63.331 17.664 62.963 18.14 62.451 18.54C61.947 18.94 61.351 19.248 60.663 19.464C59.975 19.672 59.247 19.776 58.479 19.776ZM59.703 16.668C60.199 16.668 60.675 16.568 61.131 16.368C61.587 16.168 61.963 15.848 62.259 15.408C62.555 14.968 62.703 14.38 62.703 13.644V12.768L63.783 13.728C63.255 13.912 62.655 14.068 61.983 14.196C61.311 14.316 60.655 14.408 60.015 14.472C59.335 14.544 58.827 14.66 58.491 14.82C58.155 14.98 57.987 15.244 57.987 15.612C57.987 15.964 58.131 16.228 58.419 16.404C58.715 16.58 59.143 16.668 59.703 16.668ZM74.9379 14.004V11.4H83.8059V14.004H74.9379ZM97.9164 19.8C97.1564 19.8 96.4164 19.712 95.6964 19.536C94.9844 19.36 94.3364 19.096 93.7524 18.744C93.1764 18.384 92.7124 17.936 92.3604 17.4C92.0164 16.864 91.8444 16.24 91.8444 15.528C91.8444 15.504 91.8444 15.476 91.8444 15.444C91.8444 15.412 91.8444 15.384 91.8444 15.36H96.0924C96.0924 15.384 96.0924 15.408 96.0924 15.432C96.0924 15.456 96.0924 15.48 96.0924 15.504C96.0924 15.904 96.2644 16.192 96.6084 16.368C96.9604 16.544 97.4364 16.632 98.0364 16.632C98.3084 16.632 98.5844 16.604 98.8644 16.548C99.1524 16.484 99.3924 16.384 99.5844 16.248C99.7844 16.104 99.8844 15.924 99.8844 15.708C99.8844 15.364 99.6764 15.12 99.2604 14.976C98.8524 14.832 98.1604 14.68 97.1844 14.52C96.6244 14.432 96.0404 14.3 95.4324 14.124C94.8324 13.948 94.2724 13.712 93.7524 13.416C93.2324 13.12 92.8124 12.744 92.4924 12.288C92.1724 11.832 92.0124 11.272 92.0124 10.608C92.0124 9.704 92.2844 8.952 92.8284 8.352C93.3724 7.744 94.0924 7.284 94.9884 6.972C95.8924 6.66 96.8844 6.504 97.9644 6.504C98.9884 6.504 99.9444 6.676 100.832 7.02C101.728 7.364 102.452 7.856 103.004 8.496C103.564 9.136 103.844 9.896 103.844 10.776C103.844 10.792 103.844 10.816 103.844 10.848C103.844 10.872 103.844 10.896 103.844 10.92H99.6444C99.6444 10.896 99.6444 10.872 99.6444 10.848C99.6444 10.824 99.6444 10.804 99.6444 10.788C99.6444 10.516 99.5564 10.296 99.3804 10.128C99.2124 9.96 98.9964 9.836 98.7324 9.756C98.4764 9.676 98.2124 9.636 97.9404 9.636C97.7084 9.636 97.4564 9.664 97.1844 9.72C96.9124 9.768 96.6804 9.856 96.4884 9.984C96.2964 10.104 96.2004 10.284 96.2004 10.524C96.2004 10.732 96.3124 10.908 96.5364 11.052C96.7604 11.196 97.0684 11.316 97.4604 11.412C97.8524 11.5 98.3004 11.584 98.8044 11.664C99.3004 11.736 99.8484 11.848 100.448 12C101.048 12.152 101.62 12.372 102.164 12.66C102.708 12.94 103.152 13.316 103.496 13.788C103.848 14.26 104.024 14.86 104.024 15.588C104.024 16.356 103.848 17.008 103.496 17.544C103.144 18.08 102.668 18.516 102.068 18.852C101.476 19.18 100.82 19.42 100.1 19.572C99.3804 19.724 98.6524 19.8 97.9164 19.8ZM114.066 19.5V14.796C114.066 14.34 114.066 13.94 114.066 13.596C114.066 13.244 114.066 12.956 114.066 12.732C114.066 12.404 114.05 12.088 114.018 11.784C113.986 11.472 113.914 11.188 113.802 10.932C113.69 10.676 113.518 10.472 113.286 10.32C113.062 10.168 112.754 10.092 112.362 10.092C112.018 10.092 111.718 10.168 111.462 10.32C111.214 10.472 111.006 10.684 110.838 10.956C110.67 11.22 110.546 11.536 110.466 11.904C110.386 12.264 110.346 12.652 110.346 13.068L109.374 12.12C109.374 10.992 109.566 10.008 109.95 9.168C110.342 8.328 110.898 7.676 111.618 7.212C112.346 6.74 113.21 6.504 114.21 6.504C115.298 6.504 116.138 6.74 116.73 7.212C117.322 7.676 117.734 8.292 117.966 9.06C118.198 9.828 118.314 10.668 118.314 11.58C118.314 11.932 118.314 12.416 118.314 13.032C118.314 13.64 118.314 14.38 118.314 15.252V19.5H114.066ZM106.074 19.5V6.756H110.346V19.5H106.074ZM122.01 19.5V14.808C122.01 14.344 122.01 13.94 122.01 13.596C122.01 13.244 122.01 12.952 122.01 12.72C122.01 12.36 121.99 12.024 121.95 11.712C121.91 11.392 121.834 11.112 121.722 10.872C121.61 10.624 121.438 10.432 121.206 10.296C120.982 10.16 120.682 10.092 120.306 10.092C119.962 10.092 119.662 10.168 119.406 10.32C119.158 10.472 118.954 10.684 118.794 10.956C118.634 11.22 118.514 11.532 118.434 11.892C118.354 12.252 118.314 12.632 118.314 13.032L117.342 12.084C117.342 10.964 117.534 9.988 117.918 9.156C118.302 8.324 118.854 7.676 119.574 7.212C120.294 6.74 121.158 6.504 122.166 6.504C123.246 6.504 124.082 6.736 124.674 7.2C125.274 7.664 125.694 8.276 125.934 9.036C126.174 9.796 126.294 10.632 126.294 11.544C126.294 11.912 126.294 12.392 126.294 12.984C126.294 13.576 126.294 14.308 126.294 15.18V19.5H122.01ZM136.824 19.5V14.796C136.824 14.34 136.824 13.94 136.824 13.596C136.824 13.244 136.824 12.956 136.824 12.732C136.824 12.404 136.808 12.088 136.776 11.784C136.744 11.472 136.672 11.188 136.56 10.932C136.448 10.676 136.276 10.472 136.044 10.32C135.82 10.168 135.512 10.092 135.12 10.092C134.776 10.092 134.476 10.168 134.22 10.32C133.972 10.472 133.764 10.684 133.596 10.956C133.428 11.22 133.304 11.536 133.224 11.904C133.144 12.264 133.104 12.652 133.104 13.068L132.132 12.12C132.132 10.992 132.324 10.008 132.708 9.168C133.1 8.328 133.656 7.676 134.376 7.212C135.104 6.74 135.968 6.504 136.968 6.504C138.056 6.504 138.896 6.74 139.488 7.212C140.08 7.676 140.492 8.292 140.724 9.06C140.956 9.828 141.072 10.668 141.072 11.58C141.072 11.932 141.072 12.416 141.072 13.032C141.072 13.64 141.072 14.38 141.072 15.252V19.5H136.824ZM128.832 19.5V6.756H133.104V19.5H128.832ZM144.768 19.5V14.808C144.768 14.344 144.768 13.94 144.768 13.596C144.768 13.244 144.768 12.952 144.768 12.72C144.768 12.36 144.748 12.024 144.708 11.712C144.668 11.392 144.592 11.112 144.48 10.872C144.368 10.624 144.196 10.432 143.964 10.296C143.74 10.16 143.44 10.092 143.064 10.092C142.72 10.092 142.42 10.168 142.164 10.32C141.916 10.472 141.712 10.684 141.552 10.956C141.392 11.22 141.272 11.532 141.192 11.892C141.112 12.252 141.072 12.632 141.072 13.032L140.1 12.084C140.1 10.964 140.292 9.988 140.676 9.156C141.06 8.324 141.612 7.676 142.332 7.212C143.052 6.74 143.916 6.504 144.924 6.504C146.004 6.504 146.84 6.736 147.432 7.2C148.032 7.664 148.452 8.276 148.692 9.036C148.932 9.796 149.052 10.632 149.052 11.544C149.052 11.912 149.052 12.392 149.052 12.984C149.052 13.576 149.052 14.308 149.052 15.18V19.5H144.768Z" fill="#0D0F16"/>
</svg>
